<svg id="Tornado" xmlns="http://www.w3.org/2000/svg" width="512.001" height="500.844" viewBox="0 0 43 42.063">
  <defs>
    <style>
      .cls-1 {
        fill: #daecf9;
        fill-rule: evenodd;
      }
    </style>
  </defs>
  <path id="tronado" class="cls-1" d="M632,537.851H593a1.98,1.98,0,1,1,0-3.96h39A1.98,1.98,0,1,1,632,537.851Zm-5.111,1.975M599,528.942m23,18.436H601a1.98,1.98,0,1,1,0-3.959h21A1.98,1.98,0,1,1,622,547.378Zm3,9.528H607a1.98,1.98,0,1,1,0-3.959h18A1.98,1.98,0,1,1,625,556.906Zm-6,9.528H607a1.98,1.98,0,1,1,0-3.96h12A1.98,1.98,0,1,1,619,566.434Zm-9.5,9.528h-1a1.98,1.98,0,1,1,0-3.96h1A1.98,1.98,0,1,1,609.5,575.962Z" transform="translate(-591 -533.906)"/>
</svg>
